<mxfile host="65bd71144e">
    <diagram id="iUxD2j6LyZAwN5JRG85S" name="Page-1">
        <mxGraphModel dx="799" dy="551" grid="0" gridSize="10" guides="1" tooltips="1" connect="1" arrows="1" fold="1" page="1" pageScale="1" pageWidth="1920" pageHeight="1200" background="#ffffff" math="0" shadow="0">
            <root>
                <mxCell id="0"/>
                <mxCell id="1" parent="0"/>
                <mxCell id="2" value="index.html" style="rounded=1;whiteSpace=wrap;html=1;" vertex="1" parent="1">
                    <mxGeometry x="900" y="97" width="120" height="60" as="geometry"/>
                </mxCell>
                <mxCell id="3" value="" style="endArrow=none;html=1;entryX=0.5;entryY=1;entryDx=0;entryDy=0;labelBorderColor=#FF0000;strokeWidth=4;strokeColor=#FF0000;" edge="1" parent="1" target="2">
                    <mxGeometry width="50" height="50" relative="1" as="geometry">
                        <mxPoint x="960" y="228" as="sourcePoint"/>
                        <mxPoint x="934" y="174" as="targetPoint"/>
                    </mxGeometry>
                </mxCell>
                <mxCell id="4" value="" style="line;strokeWidth=4;html=1;strokeColor=#FF0000;" vertex="1" parent="1">
                    <mxGeometry x="679" y="223" width="563" height="10" as="geometry"/>
                </mxCell>
                <mxCell id="6" value="" style="endArrow=none;html=1;entryX=0.5;entryY=1;entryDx=0;entryDy=0;labelBorderColor=#FF0000;strokeWidth=4;strokeColor=#FF0000;" edge="1" parent="1">
                    <mxGeometry width="50" height="50" relative="1" as="geometry">
                        <mxPoint x="682.0000000000002" y="297.0000000000001" as="sourcePoint"/>
                        <mxPoint x="682.0000000000002" y="226" as="targetPoint"/>
                    </mxGeometry>
                </mxCell>
                <mxCell id="7" value="bushes_trees.html" style="rounded=1;whiteSpace=wrap;html=1;" vertex="1" parent="1">
                    <mxGeometry x="624" y="295" width="120" height="60" as="geometry"/>
                </mxCell>
                <mxCell id="8" value="" style="endArrow=none;html=1;entryX=0.5;entryY=1;entryDx=0;entryDy=0;labelBorderColor=#FF0000;strokeWidth=4;strokeColor=#FF0000;" edge="1" parent="1">
                    <mxGeometry width="50" height="50" relative="1" as="geometry">
                        <mxPoint x="1240.0000000000002" y="297.0000000000001" as="sourcePoint"/>
                        <mxPoint x="1240.0000000000002" y="226" as="targetPoint"/>
                    </mxGeometry>
                </mxCell>
                <mxCell id="9" value="about.html" style="rounded=1;whiteSpace=wrap;html=1;" vertex="1" parent="1">
                    <mxGeometry x="1182" y="295" width="120" height="60" as="geometry"/>
                </mxCell>
                <mxCell id="10" value="" style="endArrow=none;html=1;entryX=0.5;entryY=1;entryDx=0;entryDy=0;labelBorderColor=#FF0000;strokeWidth=4;strokeColor=#FF0000;" edge="1" parent="1">
                    <mxGeometry width="50" height="50" relative="1" as="geometry">
                        <mxPoint x="1240.0000000000002" y="426.0000000000001" as="sourcePoint"/>
                        <mxPoint x="1240.0000000000002" y="355" as="targetPoint"/>
                    </mxGeometry>
                </mxCell>
                <mxCell id="12" value="" style="line;strokeWidth=4;html=1;strokeColor=#FF0000;" vertex="1" parent="1">
                    <mxGeometry x="1120.5" y="420" width="243" height="10" as="geometry"/>
                </mxCell>
                <mxCell id="13" value="" style="endArrow=none;html=1;entryX=0.5;entryY=1;entryDx=0;entryDy=0;labelBorderColor=#FF0000;strokeWidth=4;strokeColor=#FF0000;" edge="1" parent="1">
                    <mxGeometry width="50" height="50" relative="1" as="geometry">
                        <mxPoint x="1124.0000000000002" y="497.0000000000001" as="sourcePoint"/>
                        <mxPoint x="1124.0000000000002" y="426" as="targetPoint"/>
                    </mxGeometry>
                </mxCell>
                <mxCell id="14" value="" style="endArrow=none;html=1;entryX=0.5;entryY=1;entryDx=0;entryDy=0;labelBorderColor=#FF0000;strokeWidth=4;strokeColor=#FF0000;" edge="1" parent="1">
                    <mxGeometry width="50" height="50" relative="1" as="geometry">
                        <mxPoint x="1360.0000000000002" y="495.0000000000001" as="sourcePoint"/>
                        <mxPoint x="1360.0000000000002" y="424" as="targetPoint"/>
                    </mxGeometry>
                </mxCell>
                <mxCell id="15" value="index.html" style="rounded=1;whiteSpace=wrap;html=1;" vertex="1" parent="1">
                    <mxGeometry x="1065" y="493" width="120" height="60" as="geometry"/>
                </mxCell>
                <mxCell id="16" value="bushes_trees.html" style="rounded=1;whiteSpace=wrap;html=1;" vertex="1" parent="1">
                    <mxGeometry x="1302" y="493" width="120" height="60" as="geometry"/>
                </mxCell>
                <mxCell id="17" value="" style="endArrow=none;html=1;entryX=0.5;entryY=1;entryDx=0;entryDy=0;labelBorderColor=#FF0000;strokeWidth=4;strokeColor=#FF0000;" edge="1" parent="1">
                    <mxGeometry width="50" height="50" relative="1" as="geometry">
                        <mxPoint x="684.0000000000002" y="426.0000000000001" as="sourcePoint"/>
                        <mxPoint x="684.0000000000002" y="355" as="targetPoint"/>
                    </mxGeometry>
                </mxCell>
                <mxCell id="18" value="" style="line;strokeWidth=4;html=1;strokeColor=#FF0000;" vertex="1" parent="1">
                    <mxGeometry x="564.5" y="420" width="243" height="10" as="geometry"/>
                </mxCell>
                <mxCell id="19" value="" style="endArrow=none;html=1;entryX=0.5;entryY=1;entryDx=0;entryDy=0;labelBorderColor=#FF0000;strokeWidth=4;strokeColor=#FF0000;" edge="1" parent="1">
                    <mxGeometry width="50" height="50" relative="1" as="geometry">
                        <mxPoint x="568.0000000000002" y="497.0000000000001" as="sourcePoint"/>
                        <mxPoint x="568.0000000000002" y="426" as="targetPoint"/>
                    </mxGeometry>
                </mxCell>
                <mxCell id="20" value="" style="endArrow=none;html=1;entryX=0.5;entryY=1;entryDx=0;entryDy=0;labelBorderColor=#FF0000;strokeWidth=4;strokeColor=#FF0000;" edge="1" parent="1">
                    <mxGeometry width="50" height="50" relative="1" as="geometry">
                        <mxPoint x="804.0000000000005" y="495.0000000000001" as="sourcePoint"/>
                        <mxPoint x="804.0000000000005" y="424" as="targetPoint"/>
                    </mxGeometry>
                </mxCell>
                <mxCell id="21" value="index.html" style="rounded=1;whiteSpace=wrap;html=1;" vertex="1" parent="1">
                    <mxGeometry x="509" y="493" width="120" height="60" as="geometry"/>
                </mxCell>
                <mxCell id="22" value="about.html" style="rounded=1;whiteSpace=wrap;html=1;" vertex="1" parent="1">
                    <mxGeometry x="746" y="493" width="120" height="60" as="geometry"/>
                </mxCell>
                <mxCell id="26" value="" style="line;strokeWidth=4;html=1;strokeColor=#FF0000;" vertex="1" parent="1">
                    <mxGeometry x="361" y="318" width="262" height="10" as="geometry"/>
                </mxCell>
                <mxCell id="27" value="" style="endArrow=none;html=1;entryX=0.5;entryY=1;entryDx=0;entryDy=0;labelBorderColor=#FF0000;strokeWidth=4;strokeColor=#FF0000;" edge="1" parent="1">
                    <mxGeometry width="50" height="50" relative="1" as="geometry">
                        <mxPoint x="361.0000000000002" y="394" as="sourcePoint"/>
                        <mxPoint x="361.0000000000002" y="323.0000000000001" as="targetPoint"/>
                    </mxGeometry>
                </mxCell>
                <mxCell id="28" value="plant.html" style="rounded=1;whiteSpace=wrap;html=1;" vertex="1" parent="1">
                    <mxGeometry x="302" y="391" width="120" height="60" as="geometry"/>
                </mxCell>
                <mxCell id="29" value="" style="line;strokeWidth=4;html=1;strokeColor=#FF0000;" vertex="1" parent="1">
                    <mxGeometry x="1422" y="518" width="132" height="10" as="geometry"/>
                </mxCell>
                <mxCell id="30" value="" style="endArrow=none;html=1;entryX=0.5;entryY=1;entryDx=0;entryDy=0;labelBorderColor=#FF0000;strokeWidth=4;strokeColor=#FF0000;" edge="1" parent="1">
                    <mxGeometry width="50" height="50" relative="1" as="geometry">
                        <mxPoint x="1553.0000000000002" y="595.0000000000001" as="sourcePoint"/>
                        <mxPoint x="1553.0000000000002" y="524.0000000000001" as="targetPoint"/>
                    </mxGeometry>
                </mxCell>
                <mxCell id="31" value="plant.html" style="rounded=1;whiteSpace=wrap;html=1;" vertex="1" parent="1">
                    <mxGeometry x="1494" y="592" width="120" height="60" as="geometry"/>
                </mxCell>
            </root>
        </mxGraphModel>
    </diagram>
</mxfile>